<svg xmlns="http://www.w3.org/2000/svg" viewBox="0 0 400 300">
  <defs>
    <linearGradient id="bg" x1="0%" y1="0%" x2="100%" y2="100%">
      <stop offset="0%" style="stop-color:#0066cc;stop-opacity:1" />
      <stop offset="100%" style="stop-color:#0a84ff;stop-opacity:1" />
    </linearGradient>
  </defs>
  
  <!-- Background -->
  <rect width="400" height="300" fill="url(#bg)"/>
  
  <!-- Keyboard -->
  <g transform="translate(50, 100)">
    <!-- Row 1 -->
    <rect x="0" y="0" width="25" height="25" rx="3" fill="white" opacity="0.9"/>
    <rect x="30" y="0" width="25" height="25" rx="3" fill="white" opacity="0.9"/>
    <rect x="60" y="0" width="25" height="25" rx="3" fill="white" opacity="0.9"/>
    <rect x="90" y="0" width="25" height="25" rx="3" fill="white" opacity="0.9"/>
    <rect x="120" y="0" width="25" height="25" rx="3" fill="white" opacity="0.9"/>
    <rect x="150" y="0" width="25" height="25" rx="3" fill="white" opacity="0.9"/>
    <rect x="180" y="0" width="25" height="25" rx="3" fill="white" opacity="0.9"/>
    <rect x="210" y="0" width="25" height="25" rx="3" fill="white" opacity="0.9"/>
    <rect x="240" y="0" width="25" height="25" rx="3" fill="white" opacity="0.9"/>
    <rect x="270" y="0" width="25" height="25" rx="3" fill="white" opacity="0.9"/>
    
    <!-- Row 2 -->
    <rect x="5" y="30" width="25" height="25" rx="3" fill="white" opacity="0.9"/>
    <rect x="35" y="30" width="25" height="25" rx="3" fill="white" opacity="0.9"/>
    <rect x="65" y="30" width="25" height="25" rx="3" fill="white" opacity="0.9"/>
    <rect x="95" y="30" width="25" height="25" rx="3" fill="white" opacity="0.9"/>
    <rect x="125" y="30" width="25" height="25" rx="3" fill="white" opacity="0.9"/>
    <rect x="155" y="30" width="25" height="25" rx="3" fill="white" opacity="0.9"/>
    <rect x="185" y="30" width="25" height="25" rx="3" fill="white" opacity="0.9"/>
    <rect x="215" y="30" width="25" height="25" rx="3" fill="white" opacity="0.9"/>
    <rect x="245" y="30" width="25" height="25" rx="3" fill="white" opacity="0.9"/>
    
    <!-- Row 3 -->
    <rect x="10" y="60" width="25" height="25" rx="3" fill="white" opacity="0.9"/>
    <rect x="40" y="60" width="25" height="25" rx="3" fill="white" opacity="0.9"/>
    <rect x="70" y="60" width="25" height="25" rx="3" fill="white" opacity="0.9"/>
    <rect x="100" y="60" width="25" height="25" rx="3" fill="white" opacity="0.9"/>
    <rect x="130" y="60" width="25" height="25" rx="3" fill="white" opacity="0.9"/>
    <rect x="160" y="60" width="25" height="25" rx="3" fill="white" opacity="0.9"/>
    <rect x="190" y="60" width="25" height="25" rx="3" fill="white" opacity="0.9"/>
    <rect x="220" y="60" width="25" height="25" rx="3" fill="white" opacity="0.9"/>
    
    <!-- Spacebar -->
    <rect x="50" y="90" width="150" height="25" rx="3" fill="white" opacity="0.9"/>
  </g>
  
  <!-- Text -->
  <text x="200" y="50" font-family="Arial, sans-serif" font-size="28" font-weight="bold" fill="white" text-anchor="middle">TYPING</text>
  <text x="200" y="75" font-family="Arial, sans-serif" font-size="18" fill="white" text-anchor="middle" opacity="0.9">CHALLENGE</text>
</svg>
